<?xml version="1.0" standalone="no"?>
<!DOCTYPE svg PUBLIC "-//W3C//DTD SVG 20010904//EN"
 "http://www.w3.org/TR/2001/REC-SVG-20010904/DTD/svg10.dtd">
<svg version="1.0" xmlns="http://www.w3.org/2000/svg"
 width="260.000000pt" height="260.000000pt" viewBox="0 0 260.000000 260.000000"
 preserveAspectRatio="xMidYMid meet">
<metadata>
Created by potrace 1.11, written by Peter Selinger 2001-2013
</metadata>
<g transform="translate(0.000000,260.000000) scale(0.100000,-0.100000)"
fill="#000000" stroke="none">
<path d="M0 1300 l0 -1300 1300 0 1300 0 0 1300 0 1300 -1300 0 -1300 0 0
-1300z m1133 555 c41 -17 98 -80 128 -143 18 -36 25 -43 43 -37 116 34 149 38
214 28 63 -10 70 -9 117 16 79 41 115 51 190 51 78 0 150 -17 210 -48 49 -26
44 -27 -37 -6 -45 12 -85 15 -139 11 -76 -6 -189 -40 -189 -58 0 -12 17 -12
40 1 15 8 27 3 60 -25 23 -19 47 -35 54 -35 7 0 45 -20 85 -45 40 -25 78 -45
85 -45 7 0 45 -20 86 -45 41 -24 82 -45 91 -45 18 0 122 -50 116 -56 -2 -2
-22 2 -44 10 -54 19 -148 30 -165 20 -7 -5 -34 -9 -61 -10 -58 -1 -68 -10 -36
-31 35 -24 109 -101 109 -114 0 -6 -19 5 -41 26 -48 43 -112 74 -153 75 -16 0
-45 -12 -65 -27 -50 -37 -122 -115 -118 -127 8 -24 38 -15 87 23 55 44 107 54
153 30 28 -15 85 -76 103 -111 8 -16 36 -39 62 -52 27 -14 55 -32 63 -42 13
-16 12 -16 -20 0 -55 29 -147 44 -210 34 -68 -11 -113 -31 -169 -76 -63 -51
-62 -32 2 25 62 55 136 86 208 87 52 1 55 4 36 28 -45 57 -148 75 -212 37 -34
-20 -47 -39 -27 -39 5 0 11 -7 15 -15 4 -13 2 -13 -14 -5 -10 5 -23 10 -27 10
-10 0 -83 -106 -83 -121 0 -5 -4 -8 -9 -5 -5 4 6 38 25 76 19 39 34 73 34 76
0 3 -12 4 -27 2 -22 -3 -30 -12 -50 -68 -13 -36 -28 -74 -33 -85 -5 -11 -14
-36 -19 -55 -8 -31 -9 -27 -10 37 -1 40 -5 82 -10 95 -6 13 -13 40 -16 61 -6
39 -28 58 -46 40 -7 -7 1 -42 21 -103 17 -51 29 -97 27 -103 -1 -5 -9 10 -17
34 -22 66 -57 132 -64 120 -4 -6 -2 -20 4 -31 6 -12 10 -31 8 -43 -2 -15 -10
-3 -26 40 -13 34 -26 64 -30 67 -4 2 -24 -3 -44 -11 -40 -16 -50 -38 -20 -47
27 -9 91 -73 103 -103 8 -22 12 -24 19 -13 8 12 10 9 10 -10 0 -14 -3 -35 -6
-47 -5 -20 -9 -17 -31 26 -26 53 -105 126 -127 118 -8 -3 -17 -32 -22 -69 l-9
-63 -3 78 c-1 42 -6 77 -11 77 -4 0 -18 -11 -30 -24 -22 -23 -22 -29 -12 -73
13 -60 31 -196 26 -201 -2 -2 -8 13 -14 35 -43 155 -48 168 -65 167 -13 -2
-14 1 -6 11 8 9 5 25 -12 59 -24 51 -44 59 -54 21 -3 -14 -10 -25 -16 -25 -5
0 -7 9 -4 20 3 11 8 29 12 40 10 37 -47 114 -78 104 -13 -4 -18 0 -18 15 0 12
-2 21 -4 21 -2 0 -11 3 -20 6 -24 9 -22 -58 3 -80 10 -9 21 -30 25 -46 3 -16
24 -48 46 -70 22 -22 40 -42 40 -44 0 -3 16 -31 35 -63 37 -63 88 -189 82
-206 -1 -5 -17 20 -35 56 -18 36 -54 94 -79 129 -44 60 -47 62 -54 38 l-6 -25
-8 30 c-10 39 -25 57 -42 51 -7 -3 -13 0 -13 6 0 21 -43 58 -67 58 -13 0 -23
5 -23 10 0 19 -118 11 -160 -10 -30 -15 -38 -17 -34 -6 7 17 60 59 89 70 20 7
20 8 0 22 -23 17 -148 56 -173 53 -9 -1 -55 0 -102 1 l-85 2 40 13 c22 8 67
14 101 14 55 1 63 4 93 35 l32 33 -47 6 c-66 7 -153 -7 -204 -33 -23 -12 -39
-16 -35 -10 11 17 76 56 118 69 29 10 46 25 67 60 16 26 41 53 55 61 32 17 32
28 -1 40 -38 15 -65 12 -109 -10 -21 -11 -40 -18 -41 -17 -2 2 10 17 27 35 40
42 92 57 147 43 46 -13 134 -94 179 -163 16 -27 30 -38 48 -38 23 0 24 2 14
27 -27 72 -79 153 -133 206 -129 130 -292 153 -428 60 -44 -30 -47 -31 -34
-10 46 69 157 127 244 127 168 -1 309 -134 382 -363 16 -50 29 -71 45 -79 35
-16 50 -5 70 49 9 26 30 69 46 94 33 52 35 59 14 59 -18 0 -123 -49 -131 -61
-3 -5 -10 -9 -17 -9 -16 0 62 79 96 96 69 37 -8 82 -85 49 -25 -10 -22 8 7 39
36 39 76 35 129 -14 45 -42 70 -49 100 -27 18 13 17 15 -7 53 -51 81 -137 134
-195 119 -15 -3 -44 -17 -64 -31 -21 -13 -38 -21 -38 -18 0 18 55 76 88 94 45
23 69 24 115 5z m-358 -799 c76 -16 135 -46 180 -91 41 -42 48 -70 8 -34 -55
50 -123 79 -230 100 -63 12 -182 9 -218 -6 -14 -6 -17 -5 -10 3 14 15 119 40
170 41 22 0 67 -6 100 -13z m252 -58 c-3 -7 -5 -2 -5 12 0 14 2 19 5 13 2 -7
2 -19 0 -25z m28 -159 c54 -20 145 -90 145 -110 0 -5 -22 6 -50 25 -86 59
-167 81 -302 81 -122 0 -137 7 -53 24 73 15 192 6 260 -20z"/>
<path d="M1460 1659 c-58 -10 -103 -25 -134 -45 -17 -12 -16 -13 13 -28 17 -9
47 -30 66 -47 29 -26 38 -29 50 -19 8 7 15 17 15 23 0 6 18 34 40 63 32 42 36
53 24 58 -9 3 -16 5 -17 5 -1 -1 -27 -5 -57 -10z"/>
<path d="M1610 1633 c-13 -15 -12 -16 4 -10 10 4 27 7 37 7 11 0 17 5 14 10
-9 15 -38 11 -55 -7z"/>
<path d="M1697 1563 c-17 -4 -63 -90 -54 -100 3 -2 24 3 48 11 48 16 129 31
143 27 5 -1 21 2 35 8 14 5 35 12 46 16 17 5 18 7 4 15 -9 5 -35 13 -58 19
-35 7 -43 6 -48 -6 -5 -13 -7 -13 -15 1 -9 16 -58 20 -101 9z"/>
<path d="M1226 1541 c-3 -4 5 -33 17 -64 18 -46 27 -58 50 -63 38 -8 43 0 29
39 -7 19 -12 41 -12 50 0 30 -69 62 -84 38z"/>
<path d="M1553 1489 c-57 -43 -61 -52 -39 -94 l14 -26 37 32 c36 32 48 53 61
104 9 36 -12 32 -73 -16z"/>
<path d="M1157 1478 c-52 -70 -77 -124 -65 -136 7 -7 20 -12 30 -12 9 0 34 -9
53 -20 47 -27 100 -16 100 20 0 37 -28 47 -71 27 -20 -10 -39 -15 -43 -12 -7
7 48 60 70 67 11 4 9 14 -8 51 -13 26 -27 47 -32 47 -6 0 -21 -15 -34 -32z"/>
<path d="M1340 1450 c4 -28 11 -55 18 -62 16 -16 39 -3 46 29 6 23 2 32 -23
55 -17 16 -35 28 -39 28 -5 0 -6 -23 -2 -50z"/>
<path d="M1966 1465 c7 -17 104 -22 104 -6 0 13 -26 21 -71 21 -30 0 -37 -3
-33 -15z"/>
<path d="M679 1450 c-35 -10 -69 -29 -69 -39 0 -5 33 -11 73 -14 39 -3 84 -9
100 -12 20 -5 27 -4 27 6 -1 31 -88 70 -131 59z"/>
<path d="M1705 1438 c-60 -20 -94 -42 -82 -54 9 -9 125 27 138 43 22 26 2 30
-56 11z"/>
<path d="M1848 1439 c-10 -5 -18 -15 -18 -21 0 -15 61 -2 80 17 13 13 11 15
-15 15 -17 0 -38 -5 -47 -11z"/>
<path d="M1440 1355 c-10 -19 -11 -30 -2 -50 11 -25 32 -34 32 -15 0 6 7 10
15 10 15 0 13 14 -8 58 -13 28 -20 28 -37 -3z"/>
<path d="M1556 1364 c-24 -23 -19 -35 9 -22 14 6 25 17 25 25 0 18 -15 17 -34
-3z"/>
<path d="M1650 1351 c-31 -12 -46 -24 -51 -41 -4 -16 -7 -19 -8 -7 -1 18 -26
24 -36 7 -3 -5 6 -28 20 -50 23 -36 30 -41 58 -38 27 3 33 9 50 53 25 66 31
95 21 94 -5 -1 -29 -9 -54 -18z"/>
<path d="M1765 1360 c-3 -5 -1 -10 4 -10 6 0 11 5 11 10 0 6 -2 10 -4 10 -3 0
-8 -4 -11 -10z"/>
<path d="M1290 1340 c0 -5 7 -10 15 -10 8 0 15 5 15 10 0 6 -7 10 -15 10 -8 0
-15 -4 -15 -10z"/>
<path d="M718 1307 c-40 -16 -34 -33 15 -45 23 -6 63 -25 90 -41 26 -17 65
-34 87 -37 l40 -7 -16 32 c-20 39 -106 98 -154 105 -19 2 -47 -1 -62 -7z"/>
<path d="M942 1288 c6 -18 28 -21 28 -4 0 9 -7 16 -16 16 -9 0 -14 -5 -12 -12z"/>
<path d="M1100 1295 c0 -3 13 -20 30 -38 27 -29 31 -31 46 -15 15 15 15 17 -7
31 -29 18 -69 31 -69 22z"/>
<path d="M1486 1271 c-23 -25 -13 -41 25 -41 33 0 36 9 11 40 l-17 22 -19 -21z"/>
<path d="M1274 1255 c-4 -9 -2 -21 5 -28 23 -23 10 -27 -20 -5 l-31 23 -24
-29 c-29 -33 -21 -51 29 -59 18 -3 42 -8 54 -12 27 -9 41 15 45 76 3 41 1 44
-25 47 -18 2 -29 -2 -33 -13z"/>
<path d="M1382 1219 c-19 -31 -14 -41 13 -23 28 18 31 29 12 37 -7 3 -19 -3
-25 -14z"/>
<path d="M1590 1151 c0 -22 5 -52 11 -68 l11 -28 19 55 c19 58 18 64 -18 75
-21 6 -23 3 -23 -34z"/>
<path d="M1210 1135 c0 -11 24 -55 30 -55 4 0 15 9 24 19 17 19 17 20 -3 30
-20 11 -51 15 -51 6z"/>
</g>
</svg>
